<?xml version="1.0" encoding="iso-8859-1"?>
<!-- Generator: Adobe Illustrator 21.0.0, SVG Export Plug-In . SVG Version: 6.00 Build 0)  -->
<svg version="1.1" id="Capa_1" xmlns="http://www.w3.org/2000/svg" xmlns:xlink="http://www.w3.org/1999/xlink" x="0px" y="0px"
	 viewBox="0 0 512.001 512.001" style="enable-background:new 0 0 512.001 512.001;" xml:space="preserve">
<g>
	<g>
		<path d="M503.229,75.681l-66.911-66.91c-11.694-11.695-30.726-11.696-42.422,0L355.919,46.75
			c-5.882-0.966-12.129,0.795-16.656,5.322L302.804,88.53c-3.614,3.614-5.605,8.419-5.605,13.531c0,1.062,0.106,2.106,0.275,3.134
			L41.92,360.748c-0.238,0.233-0.455,0.488-0.662,0.754c-0.042,0.054-0.082,0.109-0.123,0.164c-0.16,0.219-0.31,0.447-0.448,0.686
			c-0.022,0.037-0.046,0.073-0.067,0.11c-0.148,0.267-0.279,0.545-0.395,0.834c-0.028,0.069-0.049,0.141-0.075,0.211
			c-0.052,0.141-0.108,0.28-0.152,0.427l-21.594,71.738c-0.005,0.017-0.01,0.034-0.016,0.052L0.564,494.939
			c-1.408,4.677-0.136,9.728,3.316,13.179c2.523,2.524,5.897,3.882,9.357,3.882c1.276,0,2.563-0.185,3.824-0.564l59.219-17.825
			c0.015-0.004,0.029-0.009,0.044-0.013l71.742-21.596c0.009-0.003,0.018-0.007,0.027-0.01c0.228-0.07,0.453-0.149,0.674-0.24
			c0.141-0.058,0.275-0.127,0.411-0.193c0.084-0.041,0.171-0.076,0.253-0.12c0.17-0.09,0.332-0.191,0.493-0.293
			c0.045-0.029,0.093-0.053,0.138-0.083c0.185-0.123,0.361-0.255,0.533-0.393c0.02-0.016,0.04-0.029,0.06-0.045
			c0.207-0.17,0.405-0.349,0.592-0.539l255.559-255.559c1.028,0.169,2.071,0.275,3.133,0.275c5.111,0,9.917-1.991,13.53-5.605
			l36.459-36.458c4.526-4.527,6.288-10.774,5.321-16.656l37.979-37.978C514.924,106.407,514.924,87.377,503.229,75.681z
			 M305.548,118.334l14.747,14.747L87.756,365.621l-25.081-4.415L305.548,118.334z M15.871,496.129l13.281-44.123l30.841,30.841
			L15.871,496.129z M76.299,477.94l-42.238-42.238l18.381-61.065l31.239,5.499l5.445,36.431c0.487,3.261,3.048,5.821,6.309,6.309
			l36.431,5.445l5.498,31.239L76.299,477.94z M150.794,449.324l-4.415-25.081L247.832,322.79c2.929-2.929,2.929-7.678,0-10.606
			c-2.929-2.929-7.678-2.929-10.606,0l-101.54,101.539l-32.545-4.864l-4.864-32.545l232.625-232.626l37.409,37.409L257.025,292.384
			c-2.929,2.929-2.929,7.678,0,10.606c1.464,1.464,3.384,2.197,5.303,2.197s3.839-0.732,5.303-2.197l111.287-111.287l14.747,14.747
			L150.794,449.324z M492.622,107.497l-35.437,35.437l-46.188-46.188c-2.929-2.929-7.678-2.929-10.606,0
			c-2.929,2.929-2.929,7.678,0,10.606l48.931,48.931c1.612,1.612,1.612,4.235,0,5.848l-36.459,36.458
			c-0.781,0.781-1.819,1.211-2.923,1.211c-1.104,0-2.142-0.43-2.923-1.211l-93.604-93.605c-0.781-0.781-1.211-1.819-1.211-2.923
			s0.43-2.143,1.211-2.924l36.458-36.458c1.612-1.612,4.235-1.612,5.848,0l24.872,24.872c2.929,2.929,7.678,2.929,10.606,0
			c2.929-2.929,2.929-7.678,0-10.606l-22.129-22.129l35.436-35.437c5.848-5.847,15.362-5.846,21.208,0l66.91,66.91
			C498.469,92.135,498.469,101.649,492.622,107.497z"/>
	</g>
</g>

</svg>
